<?xml version="1.0" encoding="iso-8859-1"?>
<!-- Generator: Adobe Illustrator 19.0.0, SVG Export Plug-In . SVG Version: 6.00 Build 0)  -->
<svg xmlns="http://www.w3.org/2000/svg" xmlns:xlink="http://www.w3.org/1999/xlink" version="1.1" id="Layer_1" x="0px" y="0px" viewBox="0 0 460.644 460.644" style="enable-background:new 0 0 460.644 460.644;" xml:space="preserve" width="512px" height="512px">
<g>
	<g>
		<g>
			<path d="M73.432,90.125v279.211c0,9.693,7.857,17.55,17.55,17.55h279.21c9.693,0,17.55-7.857,17.55-17.55V90.125     c0-9.693-7.857-17.55-17.55-17.55H90.982C81.289,72.575,73.432,80.432,73.432,90.125z" fill="#3b976e"/>
			<path d="M7.534,154.704c2.422,1.448,5.091,2.144,7.729,2.144c3.904,0,7.74-1.523,10.61-4.394l1.656-1.656     c10.182-10.183,15.903-23.993,15.903-38.393v-69.83h69.831c14.4,0,28.211-5.72,38.393-15.903     c3.404-3.404,5.216-8.196,4.511-12.958C155.039,6.1,148.604,0.81,141.305,0.81H15.266c-8.284,0-15,6.716-15,15v125.654     C0.266,146.829,2.929,151.951,7.534,154.704z" fill="#3b976e"/>
			<path d="M150.206,432.789c-10.182-10.183-23.993-15.904-38.393-15.904H43.432v-68.381c0-14.401-5.721-28.211-15.903-38.394     l-1.627-1.627c-3.896-3.896-9.587-5.627-14.895-4.149C4.426,306.165,0,312.117,0,318.794v126.038c0,8.284,6.716,15,15,15h125.619     c5.51,0,10.759-2.801,13.468-7.599c3.358-5.948,2.278-13.286-2.443-18.007L150.206,432.789z" fill="#3b976e"/>
			<path d="M445.644,0.81H320.025c-5.51,0-10.759,2.801-13.468,7.599c-3.358,5.948-2.278,13.286,2.443,18.007l0.255,0.255     c10.183,10.183,23.993,15.903,38.393,15.903h70.095v70.094c0,14.4,5.72,28.211,15.903,38.393l1.392,1.392     c2.87,2.87,6.706,4.394,10.609,4.394c2.644,0,5.32-0.698,7.744-2.153c4.598-2.759,7.253-7.881,7.253-13.243V15.81     C460.644,7.527,453.928,0.81,445.644,0.81z" fill="#3b976e"/>
			<path d="M453.653,306.279c-6.083-3.988-13.926-3.047-18.881,1.91l-1.127,1.127c-10.183,10.183-15.903,23.993-15.903,38.393     v69.177h-69.177c-14.4,0-28.211,5.721-38.394,15.903l-1.143,1.143c-3.896,3.896-5.627,9.589-4.149,14.898     c1.832,6.58,7.784,11.004,14.46,11.004h126.038c8.284,0,15-6.716,15-15V319.159C460.378,314.024,457.948,309.094,453.653,306.279     z" fill="#3b976e"/>
		</g>
	</g>
</g>
<g>
</g>
<g>
</g>
<g>
</g>
<g>
</g>
<g>
</g>
<g>
</g>
<g>
</g>
<g>
</g>
<g>
</g>
<g>
</g>
<g>
</g>
<g>
</g>
<g>
</g>
<g>
</g>
<g>
</g>
</svg>
