<?xml version="1.0" encoding="iso-8859-1"?>
<!-- Generator: Adobe Illustrator 19.0.0, SVG Export Plug-In . SVG Version: 6.00 Build 0)  -->
<svg version="1.1" id="Layer_1" xmlns="http://www.w3.org/2000/svg" xmlns:xlink="http://www.w3.org/1999/xlink" x="0px" y="0px"
	 viewBox="0 0 310.288 310.288" style="enable-background:new 0 0 310.288 310.288;" xml:space="preserve">
<g>
	<g>
		<polygon style="fill:#FFC843;" points="287.641,76.497 155.144,0 22.647,76.497 155.144,152.993 		"/>
	</g>
	<g>
		<polygon style="fill:#0071CE;" points="155.144,310.288 22.647,233.792 22.647,76.497 155.144,152.993 		"/>
	</g>
	<g>
		<polygon style="fill:#00AF41;" points="155.144,310.288 287.641,233.792 287.641,76.497 155.144,152.993 		"/>
	</g>
	<g>
		<path style="fill:#1E252B;" d="M64.62,208.163c2.68,3.262,8.896,9.53,15.434,13.304c12.109,6.992,15.86,1.44,15.754-4.408
			c-0.107-9.815-8.896-19.069-18.005-24.328l-5.251-3.032v-7.073l5.251,3.031c6.859,3.96,15.54,5.435,15.54-2.817
			c0-5.573-3.537-12.546-12.218-17.558c-5.572-3.217-10.932-3.846-13.932-3.435l-2.466-8.283c3.645-0.576,10.718,0.829,18.219,5.16
			c13.718,7.92,19.935,19.654,19.935,28.121c0,7.181-4.287,10.815-12.86,8.974v0.214c8.573,6.665,15.539,17.117,15.539,26.871
			c0,11.146-8.681,15.888-25.398,6.235c-7.824-4.517-14.684-10.942-18.112-15.173L64.62,208.163z"/>
	</g>
	<g>
		<path style="fill:#1E252B;" d="M197.157,174.405c5.68-4.137,12.432-8.677,19.826-12.947c13.396-7.734,22.935-10.132,29.258-7.889
			c6.43,2.182,10.181,8.376,10.181,20.059c0,11.79-3.644,23.539-10.396,34.083c-6.752,10.65-17.897,20.729-31.937,28.835
			c-6.645,3.836-12.218,6.731-16.933,8.918L197.157,174.405L197.157,174.405z M206.48,232.9c2.358-0.933,5.787-2.805,9.431-4.909
			c19.935-11.509,30.759-28.905,30.759-48.412c0.106-17.103-9.538-22.358-29.258-10.973c-4.822,2.784-8.466,5.315-10.932,7.275
			V232.9z"/>
	</g>
</g>
<g>
</g>
<g>
</g>
<g>
</g>
<g>
</g>
<g>
</g>
<g>
</g>
<g>
</g>
<g>
</g>
<g>
</g>
<g>
</g>
<g>
</g>
<g>
</g>
<g>
</g>
<g>
</g>
<g>
</g>
</svg>
