<?xml version="1.0" encoding="utf-8"?>
<!-- Generator: Adobe Illustrator 16.0.0, SVG Export Plug-In . SVG Version: 6.00 Build 0)  -->
<!DOCTYPE svg PUBLIC "-//W3C//DTD SVG 1.1//EN" "http://www.w3.org/Graphics/SVG/1.1/DTD/svg11.dtd">
<svg version="1.1" id="图层_1" xmlns="http://www.w3.org/2000/svg" xmlns:xlink="http://www.w3.org/1999/xlink" x="0px" y="0px"
	 width="32px" height="32px" viewBox="0 0 32 32" enable-background="new 0 0 32 32" xml:space="preserve">
<path fill="#DCDDDD" stroke="#000000" stroke-width="0.3" stroke-miterlimit="10" d="M16.962,15.775c0-0.63-0.511-1.142-1.143-1.142
	l0,0c-0.63,0-1.142,0.512-1.142,1.142l0,0c0,0.632,0.512,1.143,1.142,1.143l0,0C16.452,16.917,16.962,16.407,16.962,15.775
	L16.962,15.775z"/>
<path fill="#DCDDDD" stroke="#000000" stroke-width="0.3" stroke-miterlimit="10" d="M16.799,12.692
	c0,0.541-0.438,0.979-0.979,0.979l0,0c-0.54,0-0.979-0.438-0.979-0.979v-5.71c0-0.541,0.438-0.979,0.979-0.979l0,0
	c0.541,0,0.979,0.438,0.979,0.979V12.692z"/>
<path fill="#DCDDDD" stroke="#000000" stroke-width="0.3" stroke-miterlimit="10" d="M16.865,24.438
	c0,0.541-0.439,0.979-0.979,0.979l0,0c-0.541,0-0.979-0.438-0.979-0.979v-5.711c0-0.539,0.438-0.979,0.979-0.979l0,0
	c0.54,0,0.979,0.439,0.979,0.979V24.438z"/>
<path fill="#DCDDDD" stroke="#000000" stroke-width="0.3" stroke-miterlimit="10" d="M12.703,14.796
	c0.542,0,0.979,0.438,0.979,0.979l0,0c0,0.541-0.437,0.979-0.979,0.979H6.994c-0.541,0-0.979-0.438-0.979-0.979l0,0
	c0-0.54,0.438-0.979,0.979-0.979H12.703z"/>
<path fill="#DCDDDD" stroke="#000000" stroke-width="0.3" stroke-miterlimit="10" d="M24.646,14.796
	c0.541,0,0.979,0.438,0.979,0.979l0,0c0,0.54-0.438,0.979-0.979,0.979h-5.709c-0.541,0-0.98-0.438-0.98-0.979l0,0
	c0-0.541,0.439-0.979,0.98-0.979H24.646z"/>
</svg>
