<?xml version="1.0" encoding="utf-8"?>
<!-- Generator: Adobe Illustrator 16.0.0, SVG Export Plug-In . SVG Version: 6.00 Build 0)  -->
<!DOCTYPE svg PUBLIC "-//W3C//DTD SVG 1.1//EN" "http://www.w3.org/Graphics/SVG/1.1/DTD/svg11.dtd">
<svg version="1.1" id="图层_1" xmlns="http://www.w3.org/2000/svg" xmlns:xlink="http://www.w3.org/1999/xlink" x="0px" y="0px"
	 width="32px" height="32px" viewBox="0 0 32 32" enable-background="new 0 0 32 32" xml:space="preserve">
<polygon fill="#CCCCCC" points="11.428,10.408 20.188,10.408 15.75,6.04 "/>
<polygon fill="#CCCCCC" points="10.484,19.971 10.468,11.404 5.963,15.763 "/>
<polygon fill="#CCCCCC" points="14.446,17.118 10.476,17.118 10.476,14.395 14.446,14.395 14.446,10.408 17.235,10.408 
	17.235,14.395 21.479,14.395 21.479,17.118 17.235,17.118 17.235,20.921 14.453,20.921 "/>
<polygon fill="#CCCCCC" points="11.55,20.921 20.309,20.921 15.872,25.288 "/>
<polygon fill="#CCCCCC" points="21.494,20.103 21.479,11.536 26.007,15.877 "/>
<path fill="#CCCCCC" d="M17.235,10.408"/>
<polygon fill="#CCCCCC" stroke="#000000" stroke-width="0.3" stroke-miterlimit="10" points="11.428,10.408 15.75,6.04 
	20.188,10.408 17.235,10.408 17.235,14.395 21.483,14.395 21.479,11.536 26.007,15.877 21.494,20.103 21.488,17.118 17.235,17.118 
	17.235,20.921 20.309,20.921 15.872,25.288 11.55,20.921 14.453,20.921 14.446,17.118 10.476,17.118 10.484,19.971 5.963,15.763 
	10.468,11.404 10.476,14.395 14.446,14.395 14.446,10.408 "/>
</svg>
