<?xml version="1.0" encoding="utf-8"?>
<!-- Generator: Adobe Illustrator 16.0.0, SVG Export Plug-In . SVG Version: 6.00 Build 0)  -->
<!DOCTYPE svg PUBLIC "-//W3C//DTD SVG 1.1//EN" "http://www.w3.org/Graphics/SVG/1.1/DTD/svg11.dtd">
<svg version="1.1" id="图层_1" xmlns="http://www.w3.org/2000/svg" xmlns:xlink="http://www.w3.org/1999/xlink" x="0px" y="0px"
	 width="32px" height="32px" viewBox="0 0 32 32" enable-background="new 0 0 32 32" xml:space="preserve">
<path fill="#454545" stroke="#000000" stroke-width="0.3" stroke-miterlimit="10" d="M5.729,16c0,2.416,4.598,4.373,10.271,4.373
	c5.672,0,10.271-1.957,10.271-4.373c0-2.415-4.599-4.374-10.271-4.374C10.328,11.626,5.729,13.585,5.729,16z M24.427,16.001
	c0,1.511-3.713,2.735-8.293,2.735c-4.582,0-8.297-1.225-8.297-2.735c0-1.512,3.715-2.738,8.297-2.738
	C20.714,13.263,24.427,14.489,24.427,16.001z"/>
<path fill="#454545" stroke="#000000" stroke-width="0.3" stroke-miterlimit="10" d="M16.208,5.476
	c-2.357,0-4.268,4.711-4.268,10.524c0,5.812,1.911,10.524,4.268,10.524c2.356,0,4.268-4.712,4.268-10.524
	C20.476,10.187,18.563,5.476,16.208,5.476z M16.207,24.635c-1.474,0-2.67-3.804-2.67-8.498c0-4.696,1.196-8.502,2.67-8.502
	c1.476,0,2.671,3.806,2.671,8.502C18.878,20.831,17.683,24.635,16.207,24.635z"/>
<polygon fill="#454545" stroke="#000000" stroke-width="0.3" stroke-miterlimit="10" points="14.206,8.199 11.939,9.888 
	15.043,10.804 "/>
<polygon fill="#454545" stroke="#000000" stroke-width="0.3" stroke-miterlimit="10" points="8.61,18.207 10.254,20.543 
	11.156,17.341 "/>
</svg>
