<?xml version="1.0" encoding="utf-8"?>
<!-- Generator: Adobe Illustrator 16.0.0, SVG Export Plug-In . SVG Version: 6.00 Build 0)  -->
<!DOCTYPE svg PUBLIC "-//W3C//DTD SVG 1.1//EN" "http://www.w3.org/Graphics/SVG/1.1/DTD/svg11.dtd">
<svg version="1.1" id="图层_1" xmlns="http://www.w3.org/2000/svg" xmlns:xlink="http://www.w3.org/1999/xlink" x="0px" y="0px"
	 width="32px" height="32px" viewBox="0 0 32 32" enable-background="new 0 0 32 32" xml:space="preserve">
<path fill="#DCDDDD" stroke="#000000" stroke-width="0.3" stroke-miterlimit="10" d="M17.291,5.812c-3.061,0-5.777,1.471-7.501,3.75
	L9.221,9.173L7.643,8.044l0.396,6.188l5.912-1.695l-1.639-1.251l-0.7-0.478c1.328-1.696,3.37-2.797,5.679-2.797
	c4.005,0,7.253,3.278,7.253,7.322c0,4.043-3.248,7.322-7.253,7.322c-2.57,0-4.827-1.35-6.117-3.385l-1.567,1.583
	c1.709,2.421,4.514,4,7.685,4c5.209,0,9.431-4.263,9.431-9.521S22.5,5.812,17.291,5.812z"/>
</svg>
