<?xml version="1.0" encoding="utf-8"?>
<!-- Generator: Adobe Illustrator 16.0.0, SVG Export Plug-In . SVG Version: 6.00 Build 0)  -->
<!DOCTYPE svg PUBLIC "-//W3C//DTD SVG 1.1//EN" "http://www.w3.org/Graphics/SVG/1.1/DTD/svg11.dtd">
<svg version="1.1" id="图层_1" xmlns="http://www.w3.org/2000/svg" xmlns:xlink="http://www.w3.org/1999/xlink" x="0px" y="0px"
	 width="32px" height="32px" viewBox="0 0 32 32" enable-background="new 0 0 32 32" xml:space="preserve">
<path fill="#CCCCCC" stroke="#000000" stroke-width="0.2" stroke-miterlimit="10" d="M19.787,17.78
	c0.664-1.075,1.047-2.335,1.047-3.683c0-3.942-3.273-7.139-7.312-7.139c-4.039,0-7.313,3.197-7.313,7.139
	c0,3.943,3.274,7.139,7.313,7.139c1.488,0,2.872-0.434,4.027-1.179l5.575,5.772l2.232-2.284L19.787,17.78z M13.512,19.394
	c-2.98,0-5.396-2.358-5.396-5.268c0-2.909,2.416-5.268,5.396-5.268c2.98,0,5.396,2.359,5.396,5.268
	C18.908,17.035,16.492,19.394,13.512,19.394z"/>
</svg>
