<?xml version="1.0" encoding="iso-8859-1"?>
<!-- Generator: Adobe Illustrator 19.0.0, SVG Export Plug-In . SVG Version: 6.00 Build 0)  -->
<svg version="1.1" id="Capa_1" xmlns="http://www.w3.org/2000/svg" xmlns:xlink="http://www.w3.org/1999/xlink" x="0px" y="0px"
	 viewBox="0 0 469.333 469.333" style="enable-background:new 0 0 469.333 469.333;" xml:space="preserve">
<path style="fill:#303C42;" d="M463.625,118.552l-224-117.333c-3.125-1.625-6.792-1.625-9.917,0l-224,117.333
	C2.208,120.396,0,124.031,0,128v213.333c0,3.969,2.208,7.604,5.708,9.448l224,117.333c1.563,0.813,3.25,1.219,4.958,1.219
	s3.396-0.406,4.958-1.219l224-117.333c3.5-1.844,5.708-5.479,5.708-9.448V128C469.333,124.031,467.125,120.396,463.625,118.552z"/>
<path style="fill:#0091EA;" d="M448,324.073l-189.479-94.74l56.168-28.085l-5.043,20.168c-1.417,5.708,2.042,11.5,7.771,12.927
	c0.875,0.219,1.729,0.323,2.583,0.323c4.792,0,9.146-3.229,10.354-8.083l10.667-42.667c1.417-5.708-2.042-11.5-7.771-12.927
	l-42.667-10.667c-5.813-1.427-11.521,2.042-12.938,7.76c-1.417,5.708,2.042,11.5,7.771,12.927l14.691,3.676l-54.775,27.387V28.296
	L448,134.458V324.073z"/>
<path style="fill:#E03F17;" d="M224,28.296v183.777l-54.775-27.387l14.691-3.676c5.729-1.427,9.188-7.219,7.771-12.927
	c-1.417-5.729-7.313-9.208-12.938-7.76l-42.667,10.667c-5.729,1.427-9.188,7.219-7.771,12.927l10.667,42.667
	c1.208,4.854,5.563,8.083,10.354,8.083c0.854,0,1.729-0.104,2.583-0.323c5.729-1.427,9.188-7.219,7.771-12.927l-5.043-20.168
	l56.168,28.085l-189.479,94.74V134.458L224,28.296z"/>
<path style="fill:#98FF42;" d="M234.667,446.625L34.082,341.553L224,246.594v58.323l-13.792-13.792
	c-4.167-4.167-10.917-4.167-15.083,0c-4.167,4.167-4.167,10.917,0,15.083l32,32c2.083,2.083,4.813,3.125,7.542,3.125
	s5.458-1.042,7.542-3.125l32-32c4.167-4.167,4.167-10.917,0-15.083c-4.167-4.167-10.917-4.167-15.083,0l-13.792,13.792v-58.323
	l189.918,94.96L234.667,446.625z"/>
<linearGradient id="SVGID_1_" gradientUnits="userSpaceOnUse" x1="-67.0283" y1="618.2792" x2="-45.0446" y2="608.0229" gradientTransform="matrix(21.3333 0 0 -21.3333 1430.1112 13315.2227)">
	<stop  offset="0" style="stop-color:#FFFFFF;stop-opacity:0.2"/>
	<stop  offset="1" style="stop-color:#FFFFFF;stop-opacity:0"/>
</linearGradient>
<path style="fill:url(#SVGID_1_);" d="M463.625,118.552l-224-117.333c-3.125-1.625-6.792-1.625-9.917,0l-224,117.333
	C2.208,120.396,0,124.031,0,128v213.333c0,3.969,2.208,7.604,5.708,9.448l224,117.333c1.563,0.813,3.25,1.219,4.958,1.219
	s3.396-0.406,4.958-1.219l224-117.333c3.5-1.844,5.708-5.479,5.708-9.448V128C469.333,124.031,467.125,120.396,463.625,118.552z"/>
<g>
</g>
<g>
</g>
<g>
</g>
<g>
</g>
<g>
</g>
<g>
</g>
<g>
</g>
<g>
</g>
<g>
</g>
<g>
</g>
<g>
</g>
<g>
</g>
<g>
</g>
<g>
</g>
<g>
</g>
</svg>
