<?xml version="1.0" encoding="utf-8"?>
<!-- Generator: Adobe Illustrator 16.0.0, SVG Export Plug-In . SVG Version: 6.00 Build 0)  -->
<!DOCTYPE svg PUBLIC "-//W3C//DTD SVG 1.1//EN" "http://www.w3.org/Graphics/SVG/1.1/DTD/svg11.dtd">
<svg version="1.1" id="Layer_1" xmlns="http://www.w3.org/2000/svg" xmlns:xlink="http://www.w3.org/1999/xlink" x="0px" y="0px"
	 width="24px" height="24px" viewBox="0 0 24 24" enable-background="new 0 0 24 24" xml:space="preserve">
<g>
	<g>
		<path fill="#010101" d="M9.645,13.881c0,0-0.336,0.863-0.334,0.867l0.534,0.758h1.178l0.534-0.758
			c-0.004-0.014-0.334-0.867-0.334-0.867C11.184,13.887,9.684,13.887,9.645,13.881z M6.611,8.844
			c0.688,2.01,1.981,3.538,3.823,3.538c1.774,0,3.087-1.506,3.797-3.513c1.433-1.445,1.095-2.525,0.765-3.041
			C15.773,2.102,13.395,0,10.299,0C4.75,0,5.718,6.08,5.718,6.08C5.724,6.081,5.73,6.081,5.736,6.082
			C5.482,6.654,5.408,7.616,6.611,8.844z M8.929,4.33L8.523,5.839c1.98-0.604,2.247-0.936,2.559-1.163
			c0.324-0.235,0.599-0.474,0.82-0.691c0.102,0.184,0.231,0.352,0.379,0.504c0.146,0.154,0.363-1.397,0.363-1.397
			s0.548,0.942,0.624,1.247c0.054,0.216,0.399,1.09,0.586,1.17c-0.069,2.885-1.364,5.9-3.42,5.9c-1.915,0-3.169-2.615-3.39-5.305
			C7.57,6.072,8.929,4.33,8.929,4.33z M20.061,11.058c0.371,0,0.596-0.247,0.596-0.552c-0.008-0.313-0.225-0.552-0.58-0.552
			s-0.59,0.239-0.59,0.552C19.486,10.811,19.711,11.058,20.061,11.058z M20.072,17.387c-2.718,0-4.93-2.211-4.93-4.929
			c0-0.093,0.022-0.18,0.027-0.271l-1.393-0.513l-0.369,0.9l0.779,0.287l-2.841,9.375l-0.358-6.295H9.881l-0.354,6.18l-2.81-9.273
			l0.747-0.273l-0.373-0.899l-2.758,1.015l-0.035,0.015c-0.035,0.017-2.663,1.267-3.814,4.295C0.25,17.616,0.078,18.307,0,19.076
			C2.476,22.08,6.227,23.998,10.426,24h0.02c0.227,0,0.451-0.006,0.676-0.018h0.015c3.917-0.201,7.394-2.068,9.733-4.908
			c-0.064-0.633-0.204-1.201-0.379-1.73C20.351,17.356,20.216,17.387,20.072,17.387z M16.707,20.161
			c-1.153,0.463-2.34,0.545-3.023,0.545c-0.23,0-0.402-0.011-0.499-0.017v-0.58c0.031,0.002,1.994,0.232,3.522-0.555V20.161z
			 M20.072,8.529c-2.17,0-3.93,1.759-3.93,3.929s1.76,3.929,3.93,3.929S24,14.628,24,12.458S22.242,8.529,20.072,8.529z
			 M20.072,15.52c-1.691,0-3.063-1.37-3.063-3.062s1.371-3.062,3.063-3.062s3.061,1.37,3.061,3.062S21.764,15.52,20.072,15.52z
			 M20.621,11.494h-1.105v0.002h-0.41v0.642h0.41v2.293H19.08v0.613h0.436v0.005h1.105v-0.005h0.361v-0.613h-0.361V11.494z"/>
	</g>
</g>
</svg>
